<?xml version="1.0" encoding="UTF-8"?>
<svg id="Layer_1" data-name="Layer 1" xmlns="http://www.w3.org/2000/svg" xmlns:xlink="http://www.w3.org/1999/xlink" viewBox="0 0 266.4 286.48">
  <defs>
    <style>
      .cls-1 {
        fill: url(#linear-gradient-3);
      }

      .cls-2 {
        fill: url(#linear-gradient-2);
      }

      .cls-3 {
        fill: url(#linear-gradient);
      }
    </style>
    <linearGradient id="linear-gradient" x1="234.22" y1="101.5" x2="237.92" y2="190.37" gradientUnits="userSpaceOnUse">
      <stop offset="0" stop-color="#ffab3c"/>
      <stop offset=".5" stop-color="#aa7cd9"/>
      <stop offset="1" stop-color="#7a62ff"/>
    </linearGradient>
    <linearGradient id="linear-gradient-2" x1="88.33" y1="188.16" x2="-39.18" y2="353.34" xlink:href="#linear-gradient"/>
    <linearGradient id="linear-gradient-3" x1="200.19" y1="-2.85" x2="33.08" y2="325.57" xlink:href="#linear-gradient"/>
  </defs>
  <circle class="cls-3" cx="235.33" cy="128.27" r="31.07"/>
  <path class="cls-2" d="M234.04,179.27c-11.29,0-21.71-3.73-30.1-10.01-16.35,31.52-52.72,50.98-92.25,41.55-28.51-6.8-51.17-28.86-58.53-57.23-14.06-54.29,26.54-103.07,78.53-103.07,29.82,0,55.89,16.05,70.05,39.97,8.74-7.34,20.01-11.76,32.3-11.76,7.03,0,13.72,1.44,19.8,4.05C234.27,34.11,186.47-.16,130.72.25,58.72.76.34,59.72.09,131.41h-.09v138.88c0,6.52,3.68,12.18,9.06,14.97,3.67,1.9,8.09,1.54,11.47-.86l23.79-16.86c4.02-2.85,8.81-4.38,13.72-4.38h64.9c2.89.19,5.81.3,8.75.3,57.93,0,107.13-37.43,124.7-89.43-6.73,3.35-14.32,5.24-22.35,5.24ZM79.86,253.59l-.42-.91c.72.31,1.44.62,2.16.91h-1.74Z"/>
  <path class="cls-1" d="M234.06,179.03c-11.29,0-21.71-3.73-30.1-10.01-16.35,31.52-52.72,50.98-92.25,41.55-28.51-6.8-51.17-28.86-58.53-57.23-14.06-54.29,26.54-103.07,78.53-103.07,29.82,0,55.89,16.05,70.05,39.97,8.74-7.34,20.01-11.76,32.3-11.76,7.03,0,13.72,1.44,19.8,4.05C234.29,33.87,186.49-.4,130.73,0,57.86.53-1.07,60.92.11,133.78c1.16,71.69,59.63,129.45,131.6,129.45,57.93,0,107.13-37.43,124.7-89.43-6.73,3.35-14.32,5.24-22.35,5.24Z"/>
</svg>