<?xml version="1.0" encoding="UTF-8"?>
<svg id="Layer_1" data-name="Layer 1" xmlns="http://www.w3.org/2000/svg" xmlns:xlink="http://www.w3.org/1999/xlink" viewBox="0 0 1018.15 286.48">
  <defs>
    <style>
      .cls-1 {
        fill: url(#linear-gradient-8);
      }

      .cls-2 {
        fill: url(#linear-gradient-7);
      }

      .cls-3 {
        fill: url(#linear-gradient-5);
      }

      .cls-4 {
        fill: url(#linear-gradient-6);
      }

      .cls-5 {
        fill: url(#linear-gradient-9);
      }

      .cls-6 {
        fill: url(#linear-gradient-4);
      }

      .cls-7 {
        fill: url(#linear-gradient-3);
      }

      .cls-8 {
        fill: url(#linear-gradient-2);
      }

      .cls-9 {
        fill: url(#linear-gradient);
      }

      .cls-10 {
        fill: url(#linear-gradient-10);
      }

      .cls-11 {
        fill: url(#linear-gradient-11);
      }
    </style>
    <linearGradient id="linear-gradient" x1="234.22" y1="101.5" x2="237.92" y2="190.37" gradientUnits="userSpaceOnUse">
      <stop offset="0" stop-color="#ffab3c"/>
      <stop offset=".5" stop-color="#aa7cd9"/>
      <stop offset="1" stop-color="#7a62ff"/>
    </linearGradient>
    <linearGradient id="linear-gradient-2" x1="88.33" y1="188.16" x2="-39.18" y2="353.34" xlink:href="#linear-gradient"/>
    <linearGradient id="linear-gradient-3" x1="200.19" y1="-2.85" x2="33.08" y2="325.57" xlink:href="#linear-gradient"/>
    <linearGradient id="linear-gradient-4" x1="365.35" y1="30.79" x2="365.35" y2="186.26" xlink:href="#linear-gradient"/>
    <linearGradient id="linear-gradient-5" x1="421.25" y1="30.79" x2="421.25" y2="186.26" xlink:href="#linear-gradient"/>
    <linearGradient id="linear-gradient-6" x1="513.29" y1="30.79" x2="513.29" y2="186.26" xlink:href="#linear-gradient"/>
    <linearGradient id="linear-gradient-7" x1="604.13" y1="30.79" x2="604.13" y2="186.26" xlink:href="#linear-gradient"/>
    <linearGradient id="linear-gradient-8" x1="717.3" y1="30.79" x2="717.3" y2="186.26" xlink:href="#linear-gradient"/>
    <linearGradient id="linear-gradient-9" x1="805.68" y1="30.79" x2="805.68" y2="186.26" xlink:href="#linear-gradient"/>
    <linearGradient id="linear-gradient-10" x1="889.08" y1="30.79" x2="889.08" y2="186.26" xlink:href="#linear-gradient"/>
    <linearGradient id="linear-gradient-11" x1="977.14" y1="30.79" x2="977.14" y2="186.26" xlink:href="#linear-gradient"/>
  </defs>
  <g>
    <circle class="cls-9" cx="235.33" cy="128.27" r="31.07"/>
    <path class="cls-8" d="M234.04,179.27c-11.29,0-21.71-3.73-30.1-10.01-16.35,31.52-52.72,50.98-92.25,41.55-28.51-6.8-51.17-28.86-58.53-57.23-14.06-54.29,26.54-103.07,78.53-103.07,29.82,0,55.89,16.05,70.05,39.97,8.74-7.34,20.01-11.76,32.3-11.76,7.03,0,13.72,1.44,19.8,4.05C234.27,34.11,186.47-.16,130.72.25,58.72.76.34,59.72.09,131.41h-.09v138.88c0,6.52,3.68,12.18,9.06,14.97,3.67,1.9,8.09,1.54,11.47-.86l23.79-16.86c4.02-2.85,8.81-4.38,13.72-4.38h64.9c2.89.19,5.81.3,8.75.3,57.93,0,107.13-37.43,124.7-89.43-6.73,3.35-14.32,5.24-22.35,5.24ZM79.86,253.59l-.42-.91c.72.31,1.44.62,2.16.91h-1.74Z"/>
    <path class="cls-7" d="M234.06,179.03c-11.29,0-21.71-3.73-30.1-10.01-16.35,31.52-52.72,50.98-92.25,41.55-28.51-6.8-51.17-28.86-58.53-57.23-14.06-54.29,26.54-103.07,78.53-103.07,29.82,0,55.89,16.05,70.05,39.97,8.74-7.34,20.01-11.76,32.3-11.76,7.03,0,13.72,1.44,19.8,4.05C234.29,33.87,186.49-.4,130.73,0,57.86.53-1.07,60.92.11,133.78c1.16,71.69,59.63,129.45,131.6,129.45,57.93,0,107.13-37.43,124.7-89.43-6.73,3.35-14.32,5.24-22.35,5.24Z"/>
  </g>
  <g>
    <path class="cls-6" d="M337.97,166.3l14.76-69.14h-28.39l4.16-19.18h77.85l-4.16,19.18h-28.14l-14.76,69.14h-21.32Z"/>
    <path class="cls-3" d="M373.81,166.3l53.87-88.32h24.35l16.65,88.32h-21.95l-3.53-21.32h-33.81l-12.37,21.32h-23.22ZM419.35,127.7h21.07l-4.67-28.26-16.4,28.26Z"/>
    <path class="cls-4" d="M513.22,167.57c-8.24,0-15.94-1.51-23.09-4.54-7.15-3.03-13.33-7.36-18.55-13l13.88-14.89c4.79,4.96,9.57,8.6,14.32,10.91,4.75,2.31,9.82,3.47,15.2,3.47,2.94,0,5.47-.36,7.57-1.07,2.1-.71,3.72-1.77,4.86-3.15s1.7-3.01,1.7-4.86-.82-3.53-2.46-4.79-4.4-2.4-8.26-3.41l-18.42-4.79c-6.14-1.68-10.81-4.42-14.01-8.2-3.2-3.79-4.79-8.49-4.79-14.13s1.41-10.93,4.23-15.14c2.82-4.21,6.83-7.46,12.05-9.78,5.21-2.31,11.4-3.47,18.55-3.47s14.53,1.35,21.39,4.04c6.85,2.69,12.72,6.43,17.6,11.23l-13.37,15.14c-4.29-4.21-8.66-7.32-13.12-9.34-4.46-2.02-9.25-3.03-14.38-3.03-3.87,0-6.94.69-9.21,2.08-2.27,1.39-3.41,3.3-3.41,5.74,0,1.85.74,3.34,2.21,4.48,1.47,1.14,3.89,2.17,7.25,3.09l17.29,4.16c7.23,1.68,12.72,4.5,16.46,8.45,3.74,3.95,5.61,8.83,5.61,14.64s-1.54,11.36-4.6,15.9c-3.07,4.54-7.38,8.06-12.93,10.54-5.55,2.48-12.07,3.72-19.56,3.72Z"/>
    <path class="cls-2" d="M553.34,166.3l18.8-88.32h21.2l-7.95,37.09,42.01-37.09h27.5l-49.96,42.39,31.79,45.93h-26.75l-26.62-41.26-8.83,41.26h-21.2Z"/>
    <path class="cls-1" d="M717.11,167.82c-6.06,0-11.67-1.07-16.84-3.22-5.17-2.14-9.72-5.13-13.63-8.96-3.91-3.83-6.96-8.28-9.15-13.37-2.19-5.09-3.28-10.58-3.28-16.47,0-6.73,1.28-13.04,3.85-18.93,2.56-5.89,6.1-11.06,10.6-15.52,4.5-4.46,9.71-7.95,15.64-10.47s12.3-3.78,19.11-3.78c8.24,0,15.54,1.6,21.89,4.79,6.35,3.2,11.38,7.78,15.08,13.75l-16.53,13.88c-2.36-4.12-5.36-7.26-9.02-9.4-3.66-2.14-7.84-3.22-12.55-3.22-3.62,0-7.02.72-10.22,2.14-3.2,1.43-5.99,3.43-8.39,5.99-2.4,2.57-4.27,5.53-5.61,8.89-1.35,3.37-2.02,6.94-2.02,10.72,0,4.37,1.03,8.33,3.09,11.86,2.06,3.53,4.88,6.31,8.45,8.33,3.57,2.02,7.63,3.03,12.18,3.03,4.04,0,7.93-.86,11.67-2.59,3.74-1.72,7.25-4.27,10.54-7.63l11.73,14.51c-4.63,4.79-10.24,8.6-16.84,11.42-6.6,2.82-13.18,4.23-19.75,4.23Z"/>
    <path class="cls-5" d="M757.23,166.3l18.8-88.32h21.2l-7.19,33.94h35.71l7.19-33.94h21.2l-18.8,88.32h-21.2l7.32-34.57h-35.71l-7.32,34.57h-21.2Z"/>
    <path class="cls-10" d="M841.64,166.3l53.87-88.32h24.35l16.65,88.32h-21.95l-3.53-21.32h-33.81l-12.37,21.32h-23.22ZM887.18,127.7h21.07l-4.67-28.26-16.4,28.26Z"/>
    <path class="cls-11" d="M949.76,166.3l14.76-69.14h-28.39l4.16-19.18h77.85l-4.16,19.18h-28.14l-14.76,69.14h-21.32Z"/>
  </g>
</svg>